<?xml version="1.0" standalone="no"?>
<!DOCTYPE svg PUBLIC "-//W3C//DTD SVG 20010904//EN"
 "http://www.w3.org/TR/2001/REC-SVG-20010904/DTD/svg10.dtd">
<svg version="1.0" xmlns="http://www.w3.org/2000/svg"
 width="700.000000pt" height="700.000000pt" viewBox="0 0 700.000000 700.000000"
 preserveAspectRatio="xMidYMid meet">
<metadata>
Created by potrace 1.14, written by Peter Selinger 2001-2017
</metadata>
<g transform="translate(0.000000,700.000000) scale(0.100000,-0.100000)"
fill="#000000" stroke="none">
<path d="M0 3500 l0 -3500 3500 0 3500 0 0 3500 0 3500 -3500 0 -3500 0 0
-3500z m4444 1812 c13 -15 14 -24 5 -50 -14 -40 -27 -40 -64 -2 -28 29 -28 30
-10 50 23 25 47 26 69 2z m164 -115 c12 -11 22 -27 22 -34 0 -7 11 -18 24 -23
14 -5 30 -19 36 -31 7 -12 27 -42 46 -66 60 -79 36 -69 -51 20 -47 48 -90 87
-95 87 -6 0 -13 0 -16 -1 -4 0 -15 12 -25 28 -17 26 -18 29 -2 40 17 13 26 10
61 -20z m-1210 -109 c23 -48 24 -68 2 -98 -37 -52 -69 -133 -80 -205 -29 -183
-88 -377 -126 -413 -16 -16 -24 -34 -24 -58 0 -41 -42 -149 -69 -178 -11 -12
-23 -34 -27 -51 -12 -50 -42 -85 -73 -85 -39 0 -56 25 -56 79 1 85 13 120 43
127 42 10 52 23 52 68 0 29 14 68 45 130 25 49 45 96 45 104 0 8 20 75 45 150
38 113 45 147 43 198 -3 61 -2 64 35 101 20 22 37 47 37 56 0 30 30 79 45 73
7 -2 19 2 25 10 17 19 25 18 38 -8z m-811 -590 c-3 -7 -5 -2 -5 12 0 14 2 19
5 13 2 -7 2 -19 0 -25z m2284 -38 c9 -30 9 -46 1 -65 -11 -25 -13 -25 -42 -10
-41 21 -44 54 -7 93 28 30 34 28 48 -18z m-81 -165 c26 -32 -43 -92 -75 -65
-16 13 -9 35 21 64 19 20 38 20 54 1z m-2293 -112 c-2 -16 -4 -5 -4 22 0 28 2
40 4 28 2 -13 2 -35 0 -50z m2033 -101 c0 -25 -19 -42 -47 -42 -31 0 -29 14 5
39 34 25 42 26 42 3z m-100 -72 c0 -28 -111 -48 -170 -31 -20 6 -12 10 42 20
37 6 78 15 90 20 24 9 38 6 38 -9z m-345 -83 c3 -12 51 -64 106 -116 54 -51
99 -100 99 -110 0 -26 -35 -54 -58 -47 -10 4 -50 41 -88 84 -38 42 -74 80 -81
85 -6 4 -21 21 -33 37 -23 33 -19 76 8 83 34 9 42 7 47 -16z m-1752 -216 c-8
-31 -21 -8 -15 26 4 19 7 22 13 11 4 -8 5 -25 2 -37z m593 -95 c-60 -89 -108
-274 -110 -426 l-1 -105 -38 -18 c-47 -23 -54 -49 -37 -137 7 -37 10 -84 6
-104 -7 -39 -57 -100 -98 -120 -21 -10 -24 -20 -29 -96 -7 -99 -25 -147 -54
-142 -37 6 -48 27 -45 89 1 32 2 78 1 102 0 48 11 68 45 81 28 11 37 54 38
203 2 123 7 136 49 137 29 0 39 47 41 185 1 72 5 136 9 142 4 6 19 14 34 18
15 3 31 12 35 18 4 7 8 57 8 112 0 55 4 106 9 114 6 10 20 12 48 8 21 -4 52
-3 68 2 45 12 54 -15 21 -63z m1405 11 c-1 -12 -15 -9 -19 4 -3 6 1 10 8 8 6
-3 11 -8 11 -12z m98 -76 c24 -33 26 -52 9 -69 -16 -16 -53 -15 -65 1 -17 20
-23 59 -12 79 14 27 45 22 68 -11z m-2186 -112 c-4 -16 -8 -17 -14 -7 -13 19
-11 28 5 28 9 0 12 -7 9 -21z m2277 -48 c13 -26 12 -61 -3 -89 l-13 -23 -21
23 c-37 41 -44 63 -27 86 19 27 50 28 64 3z m-2367 -211 c-3 -11 -7 -20 -9
-20 -2 0 -4 9 -4 20 0 11 4 20 9 20 5 0 7 -9 4 -20z m2366 -513 c-9 -22 -17
-27 -38 -25 -24 3 -26 6 -24 47 1 26 11 57 25 76 l22 34 14 -52 c10 -40 10
-57 1 -80z m-69 -93 c0 -37 -7 -52 -60 -117 -33 -41 -71 -82 -85 -91 -14 -9
-25 -22 -25 -30 0 -7 -45 -52 -99 -100 -136 -121 -136 -120 -171 -106 -25 10
-28 15 -19 37 18 49 71 113 102 127 18 7 46 11 63 9 36 -6 55 13 98 99 24 49
37 64 61 70 25 7 37 23 70 88 44 88 65 93 65 14z m-532 -466 c37 -37 -14 -100
-66 -82 -41 14 -41 49 0 74 38 23 49 25 66 8z"/>
</g>
</svg>
